<?xml version="1.0" encoding="utf-8"?>
<!-- Generator: Adobe Illustrator 23.0.1, SVG Export Plug-In . SVG Version: 6.00 Build 0)  -->
<svg version="1.1" id="_x31_0" xmlns="http://www.w3.org/2000/svg" xmlns:xlink="http://www.w3.org/1999/xlink" x="0px" y="0px"
	 viewBox="0 0 160 160" style="enable-background:new 0 0 160 160;" xml:space="preserve">
<style type="text/css">
	.st0{fill:#1D2021;}
</style>
<path class="st0" d="M80,0C35.9,0,0,35.9,0,80s35.9,80,80,80s80-35.9,80-80S124.1,0,80,0z M7,80C7,39.8,39.8,7,80,7
	c6.5,0,12.7,0.9,18.7,2.4c-1.2-0.1-2.4-0.2-3.6-0.2c-11,0-21.4,5.4-31.2,16.2S49.1,49.1,49.1,64.2c0,8.6,2.5,16.2,7.6,22.7
	c5,6.5,12.3,9.7,21.8,9.7c2.6,0,5-0.3,7.2-0.9c2.1-0.6,5.1-1.8,9-3.7c-5.3,9.1-11.3,17-18.1,23.9c-6.8,6.9-14.4,12.6-22.9,17.3
	c-4.6,2.6-10.1,4.5-16.3,5.9C19,125.9,7,104.3,7,80z M107.7,19.9c3.4,3.8,5.1,9.1,5.1,16c0,14.2-4.4,30.3-13.3,48.3
	c-3.3,2.3-6,3.9-8,4.6c-2,0.7-4.2,1.1-6.6,1.1c-5.3,0-9.7-1.9-13.2-5.8c-3.5-3.9-5.2-9.6-5.2-17.2c0-14.3,3.1-26.7,9.2-37.1
	c6.1-10.4,12.9-15.6,20.4-15.6C100.4,14.3,104.3,16.2,107.7,19.9z M80,153c-14.2,0-27.5-4.1-38.7-11.2c7.7-1,14.4-2.5,19.9-4.7
	c11.2-4.3,21.8-11,31.9-20c10.1-9,18.2-19.8,24.1-32.2c5.9-12.5,8.9-25.1,8.9-37.9c0-10.1-2.7-18.9-8-26.4c-1.7-2.3-3.5-4.3-5.7-5.9
	c24,12,40.6,36.8,40.6,65.4C153,120.3,120.3,153,80,153z"/>
</svg>
